# xmcd CD database file
#
# Track frame offsets:
#	150
#	12106
#	30885
#	47017
#	59799
#	76235
#	89263
#	106266
#	121132
#	134596
#	155460
#	174448
#	186465
#	198766
#	207541
#	221409
#	236096
#	249124
#	263643
#	282697
#	301601
#
# Disc length: 4227 seconds
#
# Revision: 0
# Processed by: cddbd v1.5.2PL0 Copyright (c) Steve Scherf et al.
# Submitted via: CDex 1.70beta2
#
DISCID=1d108115
DTITLE=LineDance - Windisch Trainings CD 1
DYEAR=2008
DGENRE=Country
TTITLE0=Heoalina
TTITLE1=After Midnight
TTITLE2=My Maria
TTITLE3=Tush Push
TTITLE4=Two Pinacolada
TTITLE5=Partanz - Tequla Sunrice
TTITLE6=Vertical Expression
TTITLE7=Cotton Picking Time
TTITLE8=Bobby Sue
TTITLE9=Boyzone
TTITLE10=Island in the Stream
TTITLE11=Trail
TTITLE12=Hearts and Flowers
TTITLE13=Scrabbit
TTITLE14=Jitterbuggin
TTITLE15=Put your Feet to the Beat
TTITLE16=Tequila Sunrise
TTITLE17=Whole Again
TTITLE18=Hitmix Elvis
TTITLE19=Just got paid
TTITLE20=Be Strong
EXTD=YEAR: 2008
EXTT0=
EXTT1=
EXTT2=
EXTT3=
EXTT4=
EXTT5=
EXTT6=
EXTT7=
EXTT8=
EXTT9=
EXTT10=
EXTT11=
EXTT12=
EXTT13=
EXTT14=
EXTT15=
EXTT16=
EXTT17=
EXTT18=
EXTT19=
EXTT20=
PLAYORDER=
